#!OML:ASF F:\VICON\USERDATA\INSTALL\rory3\rory3.ASF
:FULLY-SPECIFIED
:DEGREES
2635
root -2.40597 17.7508 -3.32655 -5.05918 80.5798 -15.1146
lowerback 8.28805 -2.38657 0.290653
upperback 3.91731 -3.05221 -0.834706
thorax -0.652276 -1.46968 -0.756887
lowerneck -5.69056 -14.1048 -16.4003
upperneck 29.9844 -15.9962 -1.36059
head 12.2086 -8.9219 0.0643509
rclavicle -4.29375e-014 1.27222e-014
rhumerus 19.9132 -21.6733 -31.4978
rradius 97.1987
rwrist -26.0056
rhand -24.1673 13.1834
rfingers 7.12502
rthumb 2.31576 -16.7838
lclavicle -4.29375e-014 1.27222e-014
lhumerus -41.7117 17.7414 54.6197
lradius 42.1282
lwrist -1.12412
lhand -9.68077 25.2768
lfingers 7.12502
lthumb 16.291 -305.387
rfemur -24.8452 -4.52115 17.8022
rtibia 33.4177
rfoot -19.9034 -17.3213
rtoes 1.31795
lfemur -18.3044 4.6242 -11.4967
ltibia 30.269
lfoot -14.3651 12.8856
ltoes -21.4106
2636
root -2.40665 17.7494 -3.36256 -6.49031 80.5984 -16.6368
lowerback 8.26421 -2.38242 0.204348
upperback 3.88833 -3.05362 -0.763629
thorax -0.660743 -1.4726 -0.635844
lowerneck -5.69479 -14.0834 -16.3009
upperneck 30.0758 -15.9299 -1.51182
head 12.2164 -8.89946 0.00474035
rclavicle 1.59028e-014 3.18055e-015
rhumerus 19.5687 -18.891 -30.8663
rradius 98.8319
rwrist -23.9491
rhand -23.7793 13.6677
rfingers 7.12502
rthumb 2.69047 -16.295
lclavicle 1.59028e-014 3.18055e-015
lhumerus -41.6543 17.851 54.8293
lradius 42.097
lwrist -1.23629
lhand -9.89011 25.3541
lfingers 7.12502
lthumb 16.0895 -305.294
rfemur -24.8464 -4.43929 17.9077
rtibia 33.2329
rfoot -19.8539 -17.3267
rtoes 1.8422
lfemur -18.6003 4.77562 -11.3736
ltibia 30.5894
lfoot -14.5551 12.7148
ltoes -21.1176
2637
root -2.40816 17.7483 -3.39984 -8.15415 80.6718 -18.3406
lowerback 8.29781 -2.38303 0.187684
upperback 3.88497 -3.05529 -0.750897
thorax -0.681154 -1.47366 -0.611806
lowerneck -5.66743 -14.0794 -16.1369
upperneck 30.0835 -15.9603 -1.51032
head 12.1965 -8.8983 -0.0176103
rclavicle -6.40087e-014 2.78299e-014
rhumerus 19.0888 -15.9633 -30.207
rradius 100.266
rwrist -21.9613
rhand -23.2916 14.7472
rfingers 7.12502
rthumb 3.16149 -15.2091
lclavicle -6.40087e-014 2.78299e-014
lhumerus -41.5422 17.8775 54.9666
lradius 42.0458
lwrist -1.64788
lhand -9.81341 25.1923
lfingers 7.12502
lthumb 16.1633 -305.462
rfemur -24.758 -4.35241 18.0234
rtibia 33.0254
rfoot -19.8607 -17.3666
rtoes 2.75797
lfemur -18.8524 4.89666 -11.2377
ltibia 30.9201
lfoot -14.7115 12.5336
ltoes -21.1619
2638
root -2.40872 17.748 -3.44077 -10.4551 80.7099 -20.6911
lowerback 8.30718 -2.34482 0.354244
upperback 3.87078 -2.99273 -0.727886
thorax -0.707468 -1.44115 -0.685903
lowerneck -5.50053 -14.0885 -16.107
upperneck 30.0143 -16.0666 -1.32557
head 12.1564 -8.92539 0.0439706
rclavicle -2.34566e-014 1.43125e-014
rhumerus 18.4672 -12.9313 -29.4469
rradius 101.515
rwrist -19.7911
rhand -22.9281 15.3142
rfingers 7.12502
rthumb 3.51253 -14.6366
lclavicle -2.34566e-014 1.43125e-014
lhumerus -41.3685 17.7426 55.1769
lradius 41.9934
lwrist -2.0401
lhand -9.92664 25.1913
lfingers 7.12502
lthumb 16.0543 -305.454
rfemur -24.6793 -4.26922 18.2427
rtibia 32.8516
rfoot -19.8868 -17.4221
rtoes 3.5315
lfemur -19.0789 5.0243 -11.0122
ltibia 31.1991
lfoot -14.7685 12.4227
ltoes -21.6383
2639
root -2.40841 17.7449 -3.47835 -11.8564 80.7229 -22.134
lowerback 8.29941 -2.34551 0.243409
upperback 3.86645 -3.00097 -0.638328
thorax -0.697314 -1.44734 -0.531539
lowerneck -5.43734 -14.0577 -16.347
upperneck 29.982 -16.0337 -1.18454
head 12.1698 -8.91997 0.135236
rclavicle 2.34566e-014 0
rhumerus 18.2151 -9.70146 -28.7427
rradius 102.519
rwrist -17.7651
rhand -22.7911 15.2223
rfingers 7.12502
rthumb 3.64486 -14.7262
lclavicle 2.34566e-014 0
lhumerus -41.4011 17.8838 55.4024
lradius 42.0344
lwrist -2.22866
lhand -9.98723 25.1304
lfingers 7.12502
lthumb 15.9959 -305.51
rfemur -24.6459 -4.15719 18.3105
rtibia 32.7314
rfoot -19.9074 -17.4618
rtoes 4.06532
lfemur -19.2731 5.26386 -10.9484
ltibia 31.4312
lfoot -14.772 12.2478
ltoes -22.0121
2640
root -2.40756 17.7433 -3.51719 -11.5942 80.8437 -21.9049
lowerback 8.28443 -2.45485 -0.227614
upperback 3.89318 -3.17777 -0.520232
thorax -0.631 -1.54135 -0.133504
lowerneck -5.75703 -13.9753 -16.9533
upperneck 30.1001 -15.8192 -0.961554
head 12.3558 -8.85826 0.293879
rclavicle 3.61788e-014 -1.19271e-014
rhumerus 18.3774 -6.30263 -28.0423
rradius 103.262
rwrist -15.8826
rhand -22.6081 15.4548
rfingers 7.12502
rthumb 3.82155 -14.4907
lclavicle 3.61788e-014 -1.19271e-014
lhumerus -41.6409 18.4615 55.5985
lradius 42.13
lwrist -2.31771
lhand -10.1353 25.3206
lfingers 7.12502
lthumb 15.8533 -305.308
rfemur -24.6446 -4.24643 18.0893
rtibia 32.647
rfoot -19.7328 -17.4937
rtoes 4.02448
lfemur -19.4709 5.34419 -11.2215
ltibia 31.6304
lfoot -14.7617 12.2684
ltoes -22.8877
2641
root -2.40711 17.7458 -3.56156 -11.2432 81.0068 -21.6245
lowerback 8.25466 -2.53928 -0.589925
upperback 3.90311 -3.31486 -0.474348
thorax -0.580905 -1.61424 0.125538
lowerneck -6.09043 -13.906 -17.3834
upperneck 30.1658 -15.6705 -0.68707
head 12.5108 -8.80321 0.442272
rclavicle 4.65156e-014 -2.70347e-014
rhumerus 18.3226 -2.91545 -27.3017
rradius 103.851
rwrist -14.1665
rhand -22.3846 15.7509
rfingers 7.12502
rthumb 4.0374 -14.1906
lclavicle 4.65156e-014 -2.70347e-014
lhumerus -41.7028 18.995 55.7652
lradius 42.0858
lwrist -2.57727
lhand -9.98781 25.1451
lfingers 7.12502
lthumb 15.9954 -305.495
rfemur -24.6923 -4.49083 17.8753
rtibia 32.5754
rfoot -19.4031 -17.5543
rtoes 3.49072
lfemur -19.7077 5.38649 -11.5171
ltibia 31.8133
lfoot -14.8024 12.1959
ltoes -23.3166
2642
root -2.4075 17.7462 -3.60094 -11.7838 81.0714 -22.1846
lowerback 8.24548 -2.29243 -0.683966
upperback 3.88351 -2.99735 -0.718671
thorax -0.606173 -1.45446 -0.0996416
lowerneck -5.70389 -14.0529 -16.6715
upperneck 30.0013 -16.1035 -0.63721
head 12.3227 -8.92544 0.336898
rclavicle -3.97569e-015 1.35174e-014
rhumerus 17.0242 0.186139 -26.7404
rradius 104.376
rwrist -12.3748
rhand -22.0995 15.7081
rfingers 7.12502
rthumb 4.31264 -14.2279
lclavicle -3.97569e-015 1.35174e-014
lhumerus -40.9975 18.4042 55.9642
lradius 41.8424
lwrist -2.74047
lhand -9.67039 24.8096
lfingers 7.12502
lthumb 16.301 -305.856
rfemur -24.662 -4.48786 17.8084
rtibia 32.4921
rfoot -19.2497 -17.6562
rtoes 3.509
lfemur -19.8817 5.51358 -11.604
ltibia 32.0153
lfoot -14.8786 12.0556
ltoes -23.3913
2643
root -2.40701 17.7449 -3.63513 -13.179 81.0633 -23.5291
lowerback 8.29962 -2.10207 -0.862094
upperback 3.90901 -2.7573 -0.79578
thorax -0.605415 -1.33523 -0.0983793
lowerneck -5.48927 -14.1414 -16.1843
upperneck 29.7945 -16.3825 -0.573503
head 12.166 -8.9987 0.279607
rclavicle 2.10712e-014 -3.97569e-015
rhumerus 16.0516 3.44371 -26.2136
rradius 104.619
rwrist -10.4997
rhand -21.9427 15.6952
rfingers 7.12502
rthumb 4.46411 -14.2377
lclavicle 2.10712e-014 -3.97569e-015
lhumerus -40.4135 18.0198 56.1997
lradius 41.6182
lwrist -2.75668
lhand -9.60186 24.8847
lfingers 7.12502
lthumb 16.367 -305.786
rfemur -24.5138 -4.35469 17.9025
rtibia 32.3714
rfoot -19.1092 -17.8521
rtoes 3.21389
lfemur -19.991 5.71164 -11.5151
ltibia 32.2596
lfoot -14.9695 11.8459
ltoes -23.3216
2644
root -2.40767 17.7438 -3.67451 -15.1666 81.1016 -25.5061
lowerback 8.31295 -1.97278 -0.817985
upperback 3.94133 -2.58177 -0.885853
thorax -0.586232 -1.24571 -0.230851
lowerneck -5.23107 -14.26 -15.9836
upperneck 29.5077 -16.734 -0.273666
head 12.0319 -9.10973 0.335969
rclavicle 1.98785e-014 -3.26007e-014
rhumerus 15.1639 6.66028 -25.7941
rradius 104.529
rwrist -8.80437
rhand -21.4773 16.0781
rfingers 7.12502
rthumb 4.91348 -13.845
lclavicle 1.98785e-014 -3.26007e-014
lhumerus -39.9132 17.5602 56.4128
lradius 41.48
lwrist -2.88747
lhand -9.80355 24.9985
lfingers 7.12502
lthumb 16.1728 -305.656
rfemur -24.3863 -4.50575 18.1013
rtibia 32.2145
rfoot -18.8053 -17.8879
rtoes 2.64138
lfemur -20.1617 5.75199 -11.3516
ltibia 32.5279
lfoot -15.1208 11.6941
ltoes -23.0027
